<svg xmlns="http://www.w3.org/2000/svg" width="28" height="28" viewBox="0 0 33.77 33.77"
	shape-rendering="geometricPrecision" text-rendering="geometricPrecision" image-rendering="optimizeQuality"
	fill-rule="evenodd" clip-rule="evenodd"
	fill="#56609E">
	<path
		d="M20.74 32.27H16.2l.02-10.4h-2.7c-.35 0-.64-.29-.64-.64l-.01-3.35c0-.35.28-.64.63-.64h2.7V14c0-3.76 2.3-5.8 5.65-5.8h2.75c.35 0 .64.28.64.63v2.83c0 .35-.29.64-.64.64h-1.69c-1.82 0-2.17.86-2.17 2.14v2.8h4c.38 0 .68.33.64.71l-.4 3.35c-.04.33-.31.57-.63.57h-3.6l-.01 10.4z" />
	<path
		d="M16.88 3.04c4.51 0 5.05.02 6.83.1 1.64.08 2.54.35 3.13.58.79.31 1.35.67 1.94 1.27.59.59.96 1.15 1.27 1.94.23.59.5 1.49.58 3.13.08 1.78.1 2.32.1 6.82 0 4.51-.02 5.05-.1 6.83-.08 1.64-.35 2.54-.58 3.13-.31.79-.68 1.35-1.27 1.94-.59.6-1.15.96-1.94 1.27-.59.23-1.49.5-3.13.58-1.78.08-2.32.1-6.83.1-4.5 0-5.04-.02-6.82-.1-1.64-.08-2.54-.35-3.13-.58-.79-.31-1.35-.67-1.95-1.27-.59-.59-.95-1.15-1.26-1.94-.23-.59-.5-1.49-.58-3.13-.08-1.78-.1-2.32-.1-6.83 0-4.5.02-5.04.1-6.82.08-1.64.35-2.54.58-3.13.31-.79.67-1.35 1.26-1.94.6-.6 1.16-.96 1.95-1.27.59-.23 1.49-.5 3.13-.58 1.78-.08 2.32-.1 6.82-.1zm0-3.04c-4.58 0-5.16.02-6.96.1-1.79.08-3.02.37-4.1.79a8.361 8.361 0 00-2.99 1.94C1.9 3.77 1.32 4.71.89 5.82.47 6.9.18 8.13.1 9.92c-.08 1.8-.1 2.38-.1 6.96 0 4.59.02 5.17.1 6.97.08 1.79.37 3.02.79 4.09a8.312 8.312 0 001.94 3c.94.93 1.88 1.51 2.99 1.94 1.08.42 2.31.71 4.1.79 1.8.08 2.38.1 6.96.1 4.59 0 5.17-.02 6.97-.1 1.79-.08 3.02-.37 4.09-.79a8.312 8.312 0 003-1.94c.93-.94 1.51-1.88 1.94-3 .42-1.07.71-2.3.79-4.09.08-1.8.1-2.38.1-6.97 0-4.58-.02-5.16-.1-6.96-.08-1.79-.37-3.02-.79-4.1a8.361 8.361 0 00-1.94-2.99 8.312 8.312 0 00-3-1.94C26.87.47 25.64.18 23.85.1c-1.8-.08-2.38-.1-6.97-.1z" fill-rule="nonzero" />
</svg>
